<svg xmlns="http://www.w3.org/2000/svg" aria-hidden="true" style="position:absolute;width:0;height:0;overflow:hidden">
  <defs>
    <symbol id="icon-basket" viewBox="0 0 32 32">
      <path d="M25.333 9.333h-4V8a5.332 5.332 0 1 0-10.666 0v1.333h-4a1.333 1.333 0 0 0-1.334 1.333v14.667a4.003 4.003 0 0 0 4 4h13.333a4 4 0 0 0 4-4V10.666a1.333 1.333 0 0 0-1.333-1.333zM13.333 8a2.668 2.668 0 0 1 5.334 0v1.333h-5.333V8zM24 25.333a1.333 1.333 0 0 1-1.333 1.334H9.334A1.334 1.334 0 0 1 8 25.333V12h2.667v1.333a1.335 1.335 0 0 0 2.277.943c.25-.25.39-.589.39-.943V12h5.333v1.333a1.334 1.334 0 0 0 2.667 0V12h2.667v13.333z"/>
    </symbol>
    <symbol id="icon-close" viewBox="0 0 32 32">
      <path d="M7.545 6.713c-.275.125-.707.557-.832.832a1.15 1.15 0 0 0 .014.942l-.003-.007c.083.184.96 1.092 3.744 3.88L14.104 16l-3.636 3.64c-2.784 2.788-3.661 3.696-3.744 3.88-.221.489-.107.956.347 1.409.457.456.923.571 1.405.343.184-.087 1.149-1.017 3.884-3.745L16 17.896l3.64 3.636c2.788 2.784 3.696 3.661 3.88 3.744.488.22.945.105 1.404-.352.46-.461.575-.92.348-1.4-.087-.184-1.012-1.144-3.745-3.884L17.896 16l3.631-3.64c2.728-2.735 3.659-3.7 3.745-3.884.227-.48.107-.956-.356-1.419-.44-.439-.912-.552-1.396-.333-.184.083-1.092.96-3.88 3.744L16 14.104l-3.64-3.636C9.572 7.684 8.664 6.807 8.48 6.724a1.152 1.152 0 0 0-.942-.008l.007-.003z"/>
    </symbol>
    <symbol id="icon-arrow" viewBox="0 0 32 32">
      <path d="M32 4.741 27.259 0v23.704L3.555 0-.001 3.556 23.703 27.26H-.001l4.741 4.741h27.259V4.742z"/>
    </symbol>
    <symbol id="icon-facebook" viewBox="0 0 32 32">
      <path d="M19.52 4.64h.96v3.6h-1.2c-.48 0-.96 0-1.2.24s-.24.48-.24 1.04v1.28h2.64v3.04h-2.64v13.2h-4.08V13.76H11.6v-3.04h2.16V9.68c0-1.76.24-3.04.72-3.6.72-1.04 2.16-1.52 4.32-1.52.24.08.48.08.72.08z"/>
    </symbol>
    <symbol id="icon-instagram" viewBox="0 0 32 32">
      <path d="M28.717 10.756a9.264 9.264 0 0 0-.596-3.145 6.547 6.547 0 0 0-3.743-3.737 9.42 9.42 0 0 0-3.108-.596c-1.368-.061-1.801-.078-5.273-.078s-3.917 0-5.274.078a9.418 9.418 0 0 0-3.106.596 6.541 6.541 0 0 0-3.743 3.737 9.288 9.288 0 0 0-.596 3.101c-.061 1.367-.08 1.8-.08 5.265s0 3.909.08 5.265a9.335 9.335 0 0 0 .596 3.104 6.548 6.548 0 0 0 3.744 3.735 9.37 9.37 0 0 0 3.106.639c1.369.061 1.803.08 5.274.08s3.916 0 5.274-.08a9.357 9.357 0 0 0 3.108-.595 6.555 6.555 0 0 0 3.743-3.737 9.35 9.35 0 0 0 .596-3.104c.061-1.365.08-1.798.08-5.265-.003-3.466-.003-3.906-.082-5.264zM15.99 22.531c-3.631 0-6.572-2.936-6.572-6.561s2.941-6.561 6.572-6.561c3.628 0 6.572 2.936 6.572 6.561s-2.944 6.561-6.572 6.561zm6.833-11.835a1.53 1.53 0 1 1 0-3.06 1.53 1.53 0 1 1 0 3.06z"/>
      <path d="M15.992 19.976a4.004 4.004 0 1 0 0-8.009 4.004 4.004 0 0 0 0 8.009z"/>
    </symbol>
    <symbol id="icon-logo" viewBox="0 0 32 32">
      <path d="M29.082.314h-4.009c-1.237 0-2.24.983-2.24 2.195v3.929c0 1.212 1.003 2.195 2.24 2.195h4.009c1.237 0 2.24-.983 2.24-2.195V2.509c0-1.212-1.003-2.195-2.24-2.195zM6.73 23.04H2.412C1.08 23.04 0 24.023 0 25.235v3.929c0 1.213 1.08 2.195 2.412 2.195H6.73c1.332 0 2.412-.983 2.412-2.195v-3.929c0-1.212-1.08-2.195-2.412-2.195zM6.25 11.582H2.241c-1.237 0-2.24.983-2.24 2.195v3.929c0 1.212 1.003 2.195 2.24 2.195H6.25c1.237 0 2.24-.983 2.24-2.195v-3.929c0-1.212-1.003-2.195-2.24-2.195zM17.766 22.978h-4.009c-1.237 0-2.24.983-2.24 2.195v3.929c0 1.212 1.003 2.195 2.241 2.195h4.009c1.237 0 2.24-.983 2.24-2.195v-3.929c0-1.212-1.003-2.195-2.24-2.195zM6.25.086H2.241c-1.237 0-2.24.983-2.24 2.195V6.21c0 1.212 1.003 2.195 2.24 2.195H6.25c1.237 0 2.24-.983 2.24-2.195V2.281C8.49 1.069 7.487.086 6.25.086zM18.076 11.697h-4.009c-1.237 0-2.24.983-2.24 2.195v3.929c0 1.212 1.003 2.195 2.24 2.195h4.009c1.237 0 2.24-.983 2.24-2.195v-3.929c0-1.212-1.003-2.195-2.24-2.195zM29.333 22.978h-4.01c-1.237 0-2.24.983-2.24 2.195v3.929c0 1.212 1.003 2.195 2.24 2.195h4.009c1.237 0 2.24-.983 2.24-2.195v-3.929c0-1.212-1.003-2.195-2.24-2.195zM17.591.224h-4.009c-1.237 0-2.24.983-2.24 2.195v3.929c0 1.212 1.003 2.195 2.24 2.195h4.009c1.237 0 2.24-.984 2.24-2.196V2.418c0-1.212-1.003-2.195-2.24-2.195zM29.044 11.926h-4.01c-1.237 0-2.24.983-2.24 2.195v3.929c0 1.212 1.003 2.195 2.24 2.195h4.009c1.237 0 2.24-.983 2.24-2.195v-3.929c0-1.212-1.003-2.195-2.24-2.195z"/>
    </symbol>
    <symbol id="icon-youtube" viewBox="0 0 32 32">
      <path d="M24.24 6c-1.36-.08-4.16-.16-8.4-.16h-.56c-4.08 0-6.8.08-8.16.24-1.84.16-3.12.64-3.84 1.28-.64.56-1.12 1.6-1.28 2.96-.08.88-.16 2.72-.16 5.52v.4c0 2.64.08 4.48.24 5.36.24 1.28.64 2.24 1.44 2.8.8.64 2.16 1.04 4.08 1.2 1.36.08 4.16.16 8.4.16h.56c4.08 0 6.8-.08 8.16-.24 1.84-.16 3.12-.64 3.84-1.28.64-.56 1.12-1.6 1.28-2.96.08-.88.16-2.72.16-5.52v-.4c0-2.64-.08-4.48-.24-5.36-.24-1.28-.64-2.24-1.44-2.8-.8-.64-2.16-1.04-4.08-1.2zm-3.12 9.84-8.8 5.28V10.56l8.8 5.28z"/>
    </symbol>
    <symbol id="icon-burger" viewBox="0 0 32 32">
      <path d="M2.667 7.993c0-.733.595-1.327 1.327-1.327h10.68a1.326 1.326 0 0 1 0 2.654H3.994a1.326 1.326 0 0 1-1.327-1.327zm0 8.007c0-.733.595-1.327 1.327-1.327h24.013a1.326 1.326 0 0 1 0 2.654H3.994A1.326 1.326 0 0 1 2.667 16zm1.326 6.68a1.326 1.326 0 0 0 0 2.654h16.013a1.326 1.326 0 0 0 0-2.654H3.993z"/>
    </symbol>
     <symbol id="icon-up-arrow" viewBox="0 0 32 32">
      <path d="M31.68 21.932 16.737 6.99c-.213-.214-.459-.321-.737-.321s-.524.107-.738.321L.32 21.932c-.214.214-.321.46-.321.738s.107.524.321.737l1.603 1.603c.214.214.46.321.738.321s.524-.107.738-.321L16 12.409l12.602 12.602c.214.214.46.32.737.32s.524-.107.738-.32l1.603-1.603c.214-.214.32-.46.32-.737s-.106-.524-.32-.738z"/>
    </symbol>
  </defs>
</svg>
