<svg xmlns="http://www.w3.org/2000/svg" aria-hidden="true" style="position:absolute;width:0;height:0;overflow:hidden">
  <defs>
    <symbol id="icon-basket" viewBox="0 0 32 32">
      <path d="M15.072 4.053c-2.627.332-4.465 1.821-5.337 4.324-.289.828-.401 1.584-.401 2.695V12H6.57c-3.128 0-3.103-.003-3.504.399-.242.238-.391.569-.391.935s.15.697.391.934c.227.227.611.399.889.399.112 0 .156.031.176.12.013.065.291 2.808.616 6.093.376 3.796.623 6.069.676 6.235.111.34.447.68.791.797.237.08 1.059.088 9.787.088s9.549-.008 9.787-.088c.344-.117.68-.457.791-.797.053-.165.3-2.439.676-6.235.325-3.285.603-6.028.616-6.093.02-.089.064-.12.176-.12.279 0 .663-.172.889-.399.242-.238.391-.569.391-.935s-.15-.697-.391-.934c-.401-.401-.376-.399-3.499-.399H22.68l-.027-1.133c-.029-1.235-.08-1.552-.385-2.475-.756-2.275-2.417-3.761-4.735-4.235-.617-.127-1.865-.18-2.46-.104zm2.161 2.767a3.399 3.399 0 0 1 2.246 1.805l.009.02c.383.777.467 1.179.499 2.355l.027 1h-8.027l.027-1c.032-1.176.116-1.577.499-2.355.528-1.073 1.447-1.723 2.717-1.923.481-.076 1.531-.025 2.004.097zM11.12 17.421a1.4 1.4 0 0 1 .481.311c.375.373.399.513.399 2.268s-.024 1.895-.399 2.268c-.238.242-.569.391-.935.391s-.697-.15-.934-.391c-.375-.373-.399-.513-.399-2.268s.024-1.893.4-2.269a1.298 1.298 0 0 1 1.396-.307l-.009-.003zm5.333 0c.337.116.676.455.792.792.131.384.131 3.189 0 3.573-.168.492-.717.88-1.245.88s-1.077-.388-1.245-.88c-.131-.384-.131-3.189 0-3.573.231-.676.995-1.032 1.699-.792zm5.334 0c.337.116.676.455.792.792.131.384.131 3.189 0 3.573-.168.492-.717.88-1.245.88s-1.077-.388-1.245-.88c-.131-.384-.131-3.189 0-3.573.231-.676.995-1.032 1.699-.792z"/>
    </symbol>
    <symbol id="icon-close" viewBox="0 0 32 32">
      <path d="M7.545 6.713c-.275.125-.707.557-.832.832a1.15 1.15 0 0 0 .014.942l-.003-.007c.083.184.96 1.092 3.744 3.88L14.104 16l-3.636 3.64c-2.784 2.788-3.661 3.696-3.744 3.88-.221.489-.107.956.347 1.409.457.456.923.571 1.405.343.184-.087 1.149-1.017 3.884-3.745L16 17.896l3.64 3.636c2.788 2.784 3.696 3.661 3.88 3.744.488.22.945.105 1.404-.352.46-.461.575-.92.348-1.4-.087-.184-1.012-1.144-3.745-3.884L17.896 16l3.631-3.64c2.728-2.735 3.659-3.7 3.745-3.884.227-.48.107-.956-.356-1.419-.44-.439-.912-.552-1.396-.333-.184.083-1.092.96-3.88 3.744L16 14.104l-3.64-3.636C9.572 7.684 8.664 6.807 8.48 6.724a1.152 1.152 0 0 0-.942-.008l.007-.003z"/>
    </symbol>
    <symbol id="icon-arrow" viewBox="0 0 32 32">
      <path d="M32 4.741 27.259 0v23.704L3.555 0-.001 3.556 23.703 27.26H-.001l4.741 4.741h27.259V4.742z"/>
    </symbol>
    <symbol id="icon-facebook" viewBox="0 0 32 32">
      <path d="M19.52 4.64h.96v3.6h-1.2c-.48 0-.96 0-1.2.24s-.24.48-.24 1.04v1.28h2.64v3.04h-2.64v13.2h-4.08V13.76H11.6v-3.04h2.16V9.68c0-1.76.24-3.04.72-3.6.72-1.04 2.16-1.52 4.32-1.52.24.08.48.08.72.08z"/>
    </symbol>
    <symbol id="icon-instagram" viewBox="0 0 32 32">
      <path d="M28.717 10.756a9.264 9.264 0 0 0-.596-3.145 6.547 6.547 0 0 0-3.743-3.737 9.42 9.42 0 0 0-3.108-.596c-1.368-.061-1.801-.078-5.273-.078s-3.917 0-5.274.078a9.418 9.418 0 0 0-3.106.596 6.541 6.541 0 0 0-3.743 3.737 9.288 9.288 0 0 0-.596 3.101c-.061 1.367-.08 1.8-.08 5.265s0 3.909.08 5.265a9.335 9.335 0 0 0 .596 3.104 6.548 6.548 0 0 0 3.744 3.735 9.37 9.37 0 0 0 3.106.639c1.369.061 1.803.08 5.274.08s3.916 0 5.274-.08a9.357 9.357 0 0 0 3.108-.595 6.555 6.555 0 0 0 3.743-3.737 9.35 9.35 0 0 0 .596-3.104c.061-1.365.08-1.798.08-5.265-.003-3.466-.003-3.906-.082-5.264zM15.99 22.531c-3.631 0-6.572-2.936-6.572-6.561s2.941-6.561 6.572-6.561c3.628 0 6.572 2.936 6.572 6.561s-2.944 6.561-6.572 6.561zm6.833-11.835a1.53 1.53 0 1 1 0-3.06 1.53 1.53 0 1 1 0 3.06z"/>
      <path d="M15.992 19.976a4.004 4.004 0 1 0 0-8.009 4.004 4.004 0 0 0 0 8.009z"/>
    </symbol>
    <symbol id="icon-logo" viewBox="0 0 32 32">
      <path d="M29.082.314h-4.009c-1.237 0-2.24.983-2.24 2.195v3.929c0 1.212 1.003 2.195 2.24 2.195h4.009c1.237 0 2.24-.983 2.24-2.195V2.509c0-1.212-1.003-2.195-2.24-2.195zM6.73 23.04H2.412C1.08 23.04 0 24.023 0 25.235v3.929c0 1.213 1.08 2.195 2.412 2.195H6.73c1.332 0 2.412-.983 2.412-2.195v-3.929c0-1.212-1.08-2.195-2.412-2.195zM6.25 11.582H2.241c-1.237 0-2.24.983-2.24 2.195v3.929c0 1.212 1.003 2.195 2.24 2.195H6.25c1.237 0 2.24-.983 2.24-2.195v-3.929c0-1.212-1.003-2.195-2.24-2.195zM17.766 22.978h-4.009c-1.237 0-2.24.983-2.24 2.195v3.929c0 1.212 1.003 2.195 2.241 2.195h4.009c1.237 0 2.24-.983 2.24-2.195v-3.929c0-1.212-1.003-2.195-2.24-2.195zM6.25.086H2.241c-1.237 0-2.24.983-2.24 2.195V6.21c0 1.212 1.003 2.195 2.24 2.195H6.25c1.237 0 2.24-.983 2.24-2.195V2.281C8.49 1.069 7.487.086 6.25.086zM18.076 11.697h-4.009c-1.237 0-2.24.983-2.24 2.195v3.929c0 1.212 1.003 2.195 2.24 2.195h4.009c1.237 0 2.24-.983 2.24-2.195v-3.929c0-1.212-1.003-2.195-2.24-2.195zM29.333 22.978h-4.01c-1.237 0-2.24.983-2.24 2.195v3.929c0 1.212 1.003 2.195 2.24 2.195h4.009c1.237 0 2.24-.983 2.24-2.195v-3.929c0-1.212-1.003-2.195-2.24-2.195zM17.591.224h-4.009c-1.237 0-2.24.983-2.24 2.195v3.929c0 1.212 1.003 2.195 2.24 2.195h4.009c1.237 0 2.24-.984 2.24-2.196V2.418c0-1.212-1.003-2.195-2.24-2.195zM29.044 11.926h-4.01c-1.237 0-2.24.983-2.24 2.195v3.929c0 1.212 1.003 2.195 2.24 2.195h4.009c1.237 0 2.24-.983 2.24-2.195v-3.929c0-1.212-1.003-2.195-2.24-2.195z"/>
    </symbol>
    <symbol id="icon-youtube" viewBox="0 0 32 32">
      <path d="M24.24 6c-1.36-.08-4.16-.16-8.4-.16h-.56c-4.08 0-6.8.08-8.16.24-1.84.16-3.12.64-3.84 1.28-.64.56-1.12 1.6-1.28 2.96-.08.88-.16 2.72-.16 5.52v.4c0 2.64.08 4.48.24 5.36.24 1.28.64 2.24 1.44 2.8.8.64 2.16 1.04 4.08 1.2 1.36.08 4.16.16 8.4.16h.56c4.08 0 6.8-.08 8.16-.24 1.84-.16 3.12-.64 3.84-1.28.64-.56 1.12-1.6 1.28-2.96.08-.88.16-2.72.16-5.52v-.4c0-2.64-.08-4.48-.24-5.36-.24-1.28-.64-2.24-1.44-2.8-.8-.64-2.16-1.04-4.08-1.2zm-3.12 9.84-8.8 5.28V10.56l8.8 5.28z"/>
    </symbol>
    <symbol id="icon-burger" viewBox="0 0 32 32">
      <path d="M2.667 7.993c0-.733.595-1.327 1.327-1.327h10.68a1.326 1.326 0 0 1 0 2.654H3.994a1.326 1.326 0 0 1-1.327-1.327zm0 8.007c0-.733.595-1.327 1.327-1.327h24.013a1.326 1.326 0 0 1 0 2.654H3.994A1.326 1.326 0 0 1 2.667 16zm1.326 6.68a1.326 1.326 0 0 0 0 2.654h16.013a1.326 1.326 0 0 0 0-2.654H3.993z"/>
    </symbol>
  </defs>
</svg>
